<?xml version="1.0" encoding="UTF-8" standalone="no"?>
<!-- Created with Inkscape (http://www.inkscape.org/) -->

<svg
   version="1.1"
   id="svg2"
   width="460"
   height="122"
   viewBox="0 0 460 122"
   sodipodi:docname="logo_font.svg"
   inkscape:version="1.1.1 (26b7af14f2, 2022-01-19)"
   xmlns:inkscape="http://www.inkscape.org/namespaces/inkscape"
   xmlns:sodipodi="http://sodipodi.sourceforge.net/DTD/sodipodi-0.dtd"
   xmlns="http://www.w3.org/2000/svg"
   xmlns:svg="http://www.w3.org/2000/svg">
  <defs
     id="defs6" />
  <sodipodi:namedview
     id="namedview4"
     pagecolor="#ffffff"
     bordercolor="#999999"
     borderopacity="1"
     inkscape:pageshadow="0"
     inkscape:pageopacity="0"
     inkscape:pagecheckerboard="0"
     showgrid="false"
     inkscape:zoom="1.992"
     inkscape:cx="281.62651"
     inkscape:cy="152.86145"
     inkscape:window-width="1920"
     inkscape:window-height="1043"
     inkscape:window-x="0"
     inkscape:window-y="0"
     inkscape:window-maximized="1"
     inkscape:current-layer="g8" />
  <g
     inkscape:groupmode="layer"
     inkscape:label="Image"
     id="g8">
    <path
       style="fill:#e73659;fill-opacity:1;stroke-width:1.43498"
       d="m 238.23433,86.411011 c 0.84777,-18.39776 3.75897,-37.50509 9.23043,-60.58306 2.19911,-9.27556 2.41797,-12.10746 1.02509,-13.26345 -2.00146,-1.66105 -10.90306,7.04235 -16.08787,15.7297 -3.41787,5.72676 -7.31159,17.32511 -7.94464,23.66495 -0.5576,5.58441 -3.9536,6.06161 -7.60354,1.06846 -4.69106,-6.41745 -3.83587,-18.02919 1.9494,-26.46865 8.42203,-12.28592 25.17331,-23.98487 37.58219,-26.24703002 3.87835,-0.70703 5.91287,-0.26358 8.53612,1.86061002 l 3.44415,2.78889 -2.53995,9.87265 c -7.45094,28.96133 -10.76971,48.98982 -11.88282,71.71187 -0.50628,10.33435 -0.50792,20.433569 -0.004,22.442709 1.20875,4.81606 4.94703,6.1204 8.45152,2.94887 2.38311,-2.15667 15.40838,-27.622179 21.1302,-41.311329 5.3599,-13.23098 10.67923,-29.47246 13.56554,-42.65895 2.11268,-13.37833 5.67151,-25.50275 7.48573,-25.50275 3.83416,0 5.24588,6.00093 4.41797,18.77991 -1.30083,12.88703 -4.95276,28.0601 -9.68974,37.90192 -7.87978,18.59962 -17.24811,41.151529 -32.56166,55.352349 -4.87291,4.27849 -10.30549,7.07169 -13.7451,7.06719 -17.7556,-3.66634 -15.08868,-27.448959 -14.75902,-35.154859 z M 9.4987642,117.61967 c -16.181586,-8.08362 -10.37920395,-35.949429 7.5336608,-36.180249 4.909852,-0.0633 5.045644,1.76866 0.358745,4.83963 -3.959907,3.58417 -6.426915,8.60176 -6.457423,13.15718 0,5.345849 0.780415,7.348219 4.19457,10.762379 7.293631,7.29364 18.055114,4.5865 30.973721,-7.79169 5.76706,-5.525799 6.44622,-6.856459 6.44622,-12.629829 0,-7.40554 -3.3564,-11.56094 -11.5416,-14.28913 -10.526964,-3.50872 -23.139547,-9.99698 -26.516578,-13.64085 -3.609958,-3.89522 -6.4040138,-11.53572 -6.4183058,-17.55123 -0.0072,-3.16434 3.5309328,-12.09356 6.0567618,-15.28419 0.624791,-0.78924 3.723623,-4.7693 6.886282,-8.84456 3.162645,-4.07525 9.578546,-10.85183 14.10388,-13.87975 8.05091,-5.38685002 8.51137,-5.45478002 21.40726,-6.24753002 12.91001,1.06508002 13.22483,1.86995002 17.58092,6.01211002 6.757223,6.42538 8.576013,10.98732 8.576013,21.51065 0,6.66837 -0.8365,11.02527 -2.83765,14.77984 -6.000333,11.25789 -10.901083,14.65141 -21.158863,14.65141 -6.61646,0 -7.5731,-0.36255 -7.5731,-2.86997 0,-1.57848 0.61121,-2.86997 1.35826,-2.86997 2.06876,0 11.05183,-14.23902 13.57948,-21.52474 4.15857,-11.9867 2.58822,-18.7018 -4.99136,-21.34405 -5.77548,-2.01336 -9.49383,-0.0878 -20.21973,10.4706 -9.978601,9.82281 -14.121368,17.93014 -14.121368,27.6353 0,10.94615 5.701934,16.29963 24.130778,22.65601 30.558953,10.54028 22.55479,40.166859 -13.36841,49.481709 -8.952151,2.32128 -22.277432,1.84075 -27.9821638,-1.00908 z M 78.289161,80.443221 c 4.18781,-23.09443 15.09474,-33.56509 34.848199,-33.45431 5.74341,0.0321 12.0569,-0.12499 14.03,-0.34943 3.08557,-0.35091 3.64928,0.22993 4.02938,4.15185 0.24305,2.50792 -0.81097,7.35099 -2.34227,10.76237 -7.07604,15.76375 -9.73603,34.42658 -5.1572,36.18364 3.12791,1.2003 3.01354,1.24108 6.24381,-2.22621 4.08305,-4.38264 14.8273,-27.08862 18.74497,-39.61404 2.39169,-7.64657 4.31187,-9.2636 10.31595,-8.68728 4.01444,0.38534 4.82965,1.08651 5.21987,4.48963 0.25433,2.21814 -0.33176,4.98991 -1.30242,6.1595 -1.29515,1.56055 -1.34013,2.55124 -0.16904,3.72233 1.17107,1.17107 3.54549,-0.36417 8.9214,-5.76842 8.23362,-8.27702 16.66078,-11.65895 22.46371,-9.01496 3.40559,1.55169 4.57059,6.84525 2.10181,9.55022 -2.77357,3.03893 -9.02544,24.75071 -9.26352,32.17073 -0.23164,7.2196 0.036,7.97833 2.96047,8.39382 2.62421,0.37282 4.56241,-1.60519 10.5458,-10.76237 7.19623,-11.01337 7.31558,-11.11429 6.5067,-5.50191 -0.99081,6.87475 -7.10998,15.99752 -13.71698,20.449979 -6.59795,4.44635 -16.53626,4.51265 -18.88394,0.12599 -2.16273,-4.041109 -0.92438,-24.124459 2.00327,-32.488509 1.88132,-5.37481 1.89419,-6.30063 0.0971,-6.99021 -1.13926,-0.43718 -3.38815,0.39679 -4.99753,1.85325 -4.3457,3.93282 -12.07165,18.75236 -14.88519,28.55209 -1.35956,4.73544 -2.70696,9.417079 -2.9942,10.403629 -0.5539,1.90243 -4.63864,2.36123 -8.34833,0.93769 -1.22695,-0.47082 -2.64311,-3.05379 -3.14703,-5.739939 -1.11742,-5.95637 -3.06934,-6.13499 -8.57556,-0.78483 -4.70806,4.574619 -12.2324,8.815789 -15.64028,8.815789 -1.23024,0 -4.26392,-1.93723 -6.74152,-4.30495 -5.27283,-5.039019 -6.34554,-5.243899 -8.30323,-1.585919 -0.80035,1.495469 -3.502389,3.432699 -6.004539,4.304949 -18.6366,4.96306 -20.815923,-10.474969 -18.55971,-23.754169 z m 26.195869,9.46796 c 5.06873,-10.23638 12.97628,-34.07812 11.88713,-35.84043 -0.46973,-0.76001 -2.63703,-1.38184 -4.81624,-1.38184 -9.9624,2.55595 -26.918599,37.52777 -19.453999,46.02071 2.19942,2.430339 2.93409,2.550609 5.52741,0.90478 1.64496,-1.04396 4.730029,-5.41041 6.855699,-9.70322 z M 312.28017,104.7197 c -4.1636,-1.61904 -5.64874,-5.483859 -5.65693,-14.721229 -0.006,-6.09897 1.22051,-13.03506 3.54182,-20.03938 3.35638,-8.9743 4.68828,-13.57513 7.15602,-19.05553 1.56914,-3.56731 4.88023,-4.65692 10.1399,-3.33682 4.43634,1.11344 4.44578,4.32723 0.0413,14.04828 -1.88798,4.1669 -4.21433,11.45065 -5.16967,16.18609 -1.14054,6.5578 -3.5302,13.43209 1.38948,21.40705 l 5.09491,-4.93818 c 5.07123,-7.90753 12.57079,-18.25306 16.15479,-29.05858 3.43109,-9.48851 16.27007,-19.69741 24.77196,-19.69741 1.66455,0 4.992,1.96556 7.39435,4.3679 3.923,3.92302 4.27075,4.97542 3.41413,10.33244 -1.16725,7.2996 -3.01033,9.69437 -7.46101,9.69437 -3.95138,0 -4.1775,-1.06594 -1.37284,-6.47194 1.12142,-2.16152 1.69806,-4.81829 1.28146,-5.90395 -2.969,-7.73707 -15.33985,7.49306 -17.71281,21.80677 -2.31135,13.94206 0.23375,19.26878 9.20657,19.26878 4.80493,0 13.16345,-8.67102 17.548,-18.20408 2.73291,-7.1272 9.13164,-23.66941 7.70727,-27.76449 -1.38427,-3.34195 -2.23876,-5.76131 2.81326,-8.47828 3.10945,-1.67226 3.96176,-5.71098 4.38201,-6.7808 2.12006,-5.39691 4.9696,-16.63076 8.14764,-18.7131 5.26391,-3.44904 10.50714,-0.59398 10.50714,5.72137 0,2.62141 -0.63955,5.40575 -1.42121,6.18741 -2.31738,4.98745 -2.51204,9.3796 -3.27384,14.9376 h 4.5 c 3.04334,0 4.5,0.69676 4.5,2.15248 0,1.38377 -1.4093,2.16387 -3.94621,2.18439 -5.77787,0.0468 -9.91694,4.12209 -11.62686,11.44795 -0.82896,3.55158 -2.89149,12.1277 -4.58338,19.05803 -3.38916,13.88268 -3.06795,16.84711 1.81538,16.75438 4.51589,-0.0858 15.41392,-17.18976 19.14905,-30.05365 3.3546,-11.55337 12.92572,-22.508174 24.53743,-22.763534 19.33954,0.034 15.77562,35.502994 9.75101,45.423534 -4.39232,8.32676 -10.35399,14.128609 -15.96474,15.536829 -5.63939,1.4154 -14.13642,-1.89347 -18.95475,-7.381249 -2.41681,-2.7526 -4.83127,-5.00472 -5.36546,-5.00472 -0.5342,0 -4.07785,2.90584 -7.87477,6.45743 -9.49864,8.884849 -17.26626,8.617919 -22.11579,-0.76003 -1.2123,-2.34433 -2.89212,-4.26241 -3.73295,-4.26241 -0.84081,0 -4.12547,2.2227 -7.29925,4.93932 -4.37456,3.744459 -7.60589,5.168639 -13.35764,5.887279 -9.63296,1.20356 -14.41017,-1.04105 -18.46127,-8.674129 -1.67549,-3.15696 -3.22263,-6.02384 -3.43809,-6.37085 -0.21547,-0.34699 -1.28017,0.62162 -2.36599,2.15247 -8.08728,11.401949 -15.95341,15.529269 -23.78945,12.482189 z M 444.89164,93.227181 c -0.46948,-4.60522 1.55577,-6.16109 3.54496,-9.84004 12.43891,-18.826125 0.70475,-41.020705 -9.61598,-22.43236 -4.79592,8.40819 -15.05642,38.08015 -0.48936,37.37363 4.76632,-0.39724 6.15213,-0.86708 6.56038,-5.10123 z m -117.1854,-57.87301 c -3.1201,-1.81729 -3.16905,-4.52248 -0.19525,-10.78931 2.16806,-4.56884 2.7638,-4.88056 9.32739,-4.88056 3.85628,0 7.01142,0.61707 7.01142,1.37125 0,1.33405 -5.60763,10.44945 -8.64626,14.05482 -1.80926,2.14669 -4.10222,2.22125 -7.4973,0.2438 z"
       id="path1648"
       sodipodi:nodetypes="csssssssscsscsccscccccssccssssscssscsssssssssssssssssssssssssssssssssssssssssssssccssccssssccssccccssssssssccssssccsssssssccsssssssssssscssccssssssss" />
  </g>
</svg>
